#Comment line ignore any data following # character 
#Hierarchical Translation and Rotation (.htr) file 
[Header]	
#Header keywords are followed by a single value 
FileType HTR		#Single word string
DataType HTRS		#Translation followed by rotation and scale data
FileVersion 1		#integer
NumSegments 64		#integer
NumFrames 3		#integer
DataFrameRate 30		#integer, data frame rate in this file
EulerRotationOrder ZYX
CalibrationUnits mm
RotationUnits Degrees
GlobalAxisofGravity Y
BoneLengthAxis Y
ScaleFactor 1.00
[SegmentNames&Hierarchy]
#CHILD	PARENT
Pinger_Root GLOBAL
Pelvis Pinger_Root
L_Hip Pelvis
R_Hip Pelvis
Rear_Leg01 Pelvis
Spine1 Pelvis
L_Leg01 L_Hip
L_Leg02 L_Leg01
L_Leg03 L_Leg02
L_Foot L_Leg03
L_Toe1_01 L_Foot
L_Toe2_01 L_Foot
L_Toe3_01 L_Foot
planeAlignerLeft L_Foot
L_Toe1_02 L_Toe1_01
L_Toe1_03 L_Toe1_02
L_Toe2_02 L_Toe2_01
L_Toe2_03 L_Toe2_02
L_Toe3_02 L_Toe3_01
L_Toe3_03 L_Toe3_02
planeLockWeightLeft planeAlignerLeft
R_Leg01 R_Hip
R_Leg02 R_Leg01
R_Leg03 R_Leg02
R_Foot R_Leg03
planeAlignerRight R_Foot
R_Toe1_01 R_Foot
R_Toe2_01 R_Foot
R_Toe3_01 R_Foot
planeLockWeightRight planeAlignerRight
R_Toe1_02 R_Toe1_01
R_Toe1_03 R_Toe1_02
R_Toe2_02 R_Toe2_01
R_Toe2_03 R_Toe2_02
R_Toe3_02 R_Toe3_01
R_Toe3_03 R_Toe3_02
Rear_Leg02 Rear_Leg01
Rear_Leg03 Rear_Leg02
Rear_Leg04 Rear_Leg03
Rear_Foot Rear_Leg04
planeAlignerCenter Rear_Foot
Rear_Toe1_01 Rear_Foot
Rear_Toe2_01 Rear_Foot
Rear_Toe3_01 Rear_Foot
planeLockWeightCenter planeAlignerCenter
Rear_Toe1_02 Rear_Toe1_01
Rear_Toe1_03 Rear_Toe1_02
Rear_Toe2_02 Rear_Toe2_01
Rear_Toe2_03 Rear_Toe2_02
Rear_Toe3_02 Rear_Toe3_01
Rear_Toe3_03 Rear_Toe3_02
Back_Bone Spine1
Head Spine1
Motor_Bone Back_Bone
Ping_Mechanism Back_Bone
BN_LookIK Head
bottomMouth Head
L_Mouth01 Head
L_mouthFront Head
mouthGun Head
R_Mouth01 Head
R_mouthFront Head
TopMouth Head
weapon_bone Head
[BasePosition]
#SegmentName Tx, Ty, Tz, Rx, Ry, Rz, BoneLength
Pinger_Root 0.000000 0.000000 0.000000 -90.000000 0.000000 0.000000 10.000000 
Pelvis 0.000000 0.000000 0.000000 0.000000 0.000000 0.000000 10.000000 
L_Hip 0.000000 0.000000 0.000000 0.000000 0.000000 0.000000 10.000000 
R_Hip 0.000000 0.000000 0.000000 0.000000 0.000000 0.000000 10.000000 
Rear_Leg01 0.000000 0.000000 0.000000 0.000000 0.000000 0.000000 10.000000 
Spine1 0.000000 0.000000 0.000000 0.000000 0.000000 0.000000 10.000000 
L_Leg01 0.000000 0.000000 0.000000 0.000000 0.000000 0.000000 10.000000 
L_Leg02 0.000000 0.000000 0.000000 0.000000 0.000000 0.000000 10.000000 
L_Leg03 0.000000 0.000000 0.000000 0.000000 0.000000 0.000000 10.000000 
L_Foot 0.000000 0.000000 0.000000 0.000000 0.000000 0.000000 10.000000 
L_Toe1_01 0.000000 0.000000 0.000000 0.000000 0.000000 0.000000 10.000000 
L_Toe2_01 0.000000 0.000000 0.000000 0.000000 0.000000 0.000000 10.000000 
L_Toe3_01 0.000000 0.000000 0.000000 0.000000 0.000000 0.000000 10.000000 
planeAlignerLeft 0.000000 0.000000 0.000000 0.000000 0.000000 0.000000 10.000000 
L_Toe1_02 0.000000 0.000000 0.000000 0.000000 0.000000 0.000000 10.000000 
L_Toe1_03 0.000000 0.000000 0.000000 0.000000 0.000000 0.000000 10.000000 
L_Toe2_02 0.000000 0.000000 0.000000 0.000000 0.000000 0.000000 10.000000 
L_Toe2_03 0.000000 0.000000 0.000000 0.000000 0.000000 0.000000 10.000000 
L_Toe3_02 0.000000 0.000000 0.000000 0.000000 0.000000 0.000000 10.000000 
L_Toe3_03 0.000000 0.000000 0.000000 0.000000 0.000000 0.000000 10.000000 
planeLockWeightLeft 0.000000 0.000000 0.000000 0.000000 0.000000 0.000000 10.000000 
R_Leg01 0.000000 0.000000 0.000000 0.000000 0.000000 0.000000 10.000000 
R_Leg02 0.000000 0.000000 0.000000 0.000000 0.000000 0.000000 10.000000 
R_Leg03 0.000000 0.000000 0.000000 0.000000 0.000000 0.000000 10.000000 
R_Foot 0.000000 0.000000 0.000000 0.000000 0.000000 0.000000 10.000000 
planeAlignerRight 0.000000 0.000000 0.000000 0.000000 0.000000 0.000000 10.000000 
R_Toe1_01 0.000000 0.000000 0.000000 0.000000 0.000000 0.000000 10.000000 
R_Toe2_01 0.000000 0.000000 0.000000 0.000000 0.000000 0.000000 10.000000 
R_Toe3_01 0.000000 0.000000 0.000000 0.000000 0.000000 0.000000 10.000000 
planeLockWeightRight 0.000000 0.000000 0.000000 0.000000 0.000000 0.000000 10.000000 
R_Toe1_02 0.000000 0.000000 0.000000 0.000000 0.000000 0.000000 10.000000 
R_Toe1_03 0.000000 0.000000 0.000000 0.000000 0.000000 0.000000 10.000000 
R_Toe2_02 0.000000 0.000000 0.000000 0.000000 0.000000 0.000000 10.000000 
R_Toe2_03 0.000000 0.000000 0.000000 0.000000 0.000000 0.000000 10.000000 
R_Toe3_02 0.000000 0.000000 0.000000 0.000000 0.000000 0.000000 10.000000 
R_Toe3_03 0.000000 0.000000 0.000000 0.000000 0.000000 0.000000 10.000000 
Rear_Leg02 0.000000 0.000000 0.000000 0.000000 0.000000 0.000000 10.000000 
Rear_Leg03 0.000000 0.000000 0.000000 0.000000 0.000000 0.000000 10.000000 
Rear_Leg04 0.000000 0.000000 0.000000 0.000000 0.000000 0.000000 10.000000 
Rear_Foot 0.000000 0.000000 0.000000 0.000000 0.000000 0.000000 10.000000 
planeAlignerCenter 0.000000 0.000000 0.000000 0.000000 0.000000 0.000000 10.000000 
Rear_Toe1_01 0.000000 0.000000 0.000000 0.000000 0.000000 0.000000 10.000000 
Rear_Toe2_01 0.000000 0.000000 0.000000 0.000000 0.000000 0.000000 10.000000 
Rear_Toe3_01 0.000000 0.000000 0.000000 0.000000 0.000000 0.000000 10.000000 
planeLockWeightCenter 0.000000 0.000000 0.000000 0.000000 0.000000 0.000000 10.000000 
Rear_Toe1_02 0.000000 0.000000 0.000000 0.000000 0.000000 0.000000 10.000000 
Rear_Toe1_03 0.000000 0.000000 0.000000 0.000000 0.000000 0.000000 10.000000 
Rear_Toe2_02 0.000000 0.000000 0.000000 0.000000 0.000000 0.000000 10.000000 
Rear_Toe2_03 0.000000 0.000000 0.000000 0.000000 0.000000 0.000000 10.000000 
Rear_Toe3_02 0.000000 0.000000 0.000000 0.000000 0.000000 0.000000 10.000000 
Rear_Toe3_03 0.000000 0.000000 0.000000 0.000000 0.000000 0.000000 10.000000 
Back_Bone 0.000000 0.000000 0.000000 0.000000 0.000000 0.000000 10.000000 
Head 0.000000 0.000000 0.000000 0.000000 0.000000 0.000000 10.000000 
Motor_Bone 0.000000 0.000000 0.000000 0.000000 0.000000 0.000000 10.000000 
Ping_Mechanism 0.000000 0.000000 0.000000 0.000000 0.000000 0.000000 10.000000 
BN_LookIK 0.000000 0.000000 0.000000 0.000000 0.000000 0.000000 10.000000 
bottomMouth 0.000000 0.000000 0.000000 0.000000 0.000000 0.000000 10.000000 
L_Mouth01 0.000000 0.000000 0.000000 0.000000 0.000000 0.000000 10.000000 
L_mouthFront 0.000000 0.000000 0.000000 0.000000 0.000000 0.000000 10.000000 
mouthGun 0.000000 0.000000 0.000000 0.000000 0.000000 0.000000 10.000000 
R_Mouth01 0.000000 0.000000 0.000000 0.000000 0.000000 0.000000 10.000000 
R_mouthFront 0.000000 0.000000 0.000000 0.000000 0.000000 0.000000 10.000000 
TopMouth 0.000000 0.000000 0.000000 0.000000 0.000000 0.000000 10.000000 
weapon_bone 0.000000 0.000000 0.000000 0.000000 0.000000 0.000000 10.000000 
#Beginning of Data. Separated by tabs
#Fr	Tx	Ty	Tz	Rx	Ry	Rz	SF
[Pinger_Root]
44 0.000000 0.000000 0.000000 -0.000075 -0.000000 -0.000020 0.000000
45 0.000000 0.000000 0.000000 -0.000075 -0.000000 -0.000020 0.000000
46 0.000000 0.000000 0.000000 -0.000075 -0.000000 -0.000020 0.000000
[Pelvis]
44 409.962982 940.504639 4172.004395 -37.613995 -81.305031 38.079288 4296.304688
45 475.679993 837.180420 4264.034668 -22.186613 -82.475983 23.389616 4371.399414
46 543.595886 722.981262 4359.693359 -3.059597 -82.977615 4.999568 4452.541504
[L_Hip]
44 5.766392 125.831482 872.656799 160.158691 -45.484898 122.312202 881.701050
45 5.766392 125.831482 872.656799 160.158691 -45.484894 122.312202 881.701050
46 5.766392 125.831482 872.656799 160.158691 -45.484905 122.312202 881.701050
[R_Hip]
44 5.765438 125.836372 -872.654907 -79.641121 72.753601 -0.979891 881.699829
45 5.765438 125.836372 -872.654907 -69.786919 75.632820 8.893728 881.699829
46 5.765438 125.836372 -872.654907 -53.694740 77.996948 25.089609 881.699829
[Rear_Leg01]
44 -192.298416 -925.602966 -0.001907 179.174713 1.158621 -141.103012 945.367432
45 -192.298416 -925.602966 -0.001907 179.154068 -0.531817 -141.726379 945.367432
46 -192.298416 -925.602966 -0.001907 179.452164 -2.300612 -144.179947 945.367432
[Spine1]
44 290.604584 5.007505 0.000477 -8.367861 -4.888957 16.343845 290.647736
45 290.604584 5.007505 0.000477 -8.191864 -4.713463 17.795496 290.647736
46 290.604584 5.007505 0.000477 -7.512469 -4.295472 20.681860 290.647736
[L_Leg01]
44 761.932007 -0.002384 -0.069261 27.511593 -28.421980 -0.898968 761.932068
45 761.932007 -0.002384 -0.069261 26.105654 -28.721048 -0.736421 761.932068
46 761.932007 -0.002384 -0.069261 25.151888 -29.375845 -0.512338 761.932068
[L_Leg02]
44 1441.140503 -0.000954 -0.000715 -1.348040 0.749024 -97.317986 1441.140503
45 1441.140503 -0.000954 -0.000715 -1.242341 0.857457 -93.309898 1441.140503
46 1441.140503 -0.000954 -0.000715 -1.116929 0.953464 -88.779945 1441.140503
[L_Leg03]
44 1686.963989 -0.000715 -0.000954 0.079432 -0.013118 88.745766 1686.963989
45 1686.963989 -0.000715 -0.000954 0.108595 -0.012354 80.841759 1686.963989
46 1686.963989 -0.000715 -0.000954 0.140863 -0.001873 71.508049 1686.963989
[L_Foot]
44 3041.570068 -30.715107 11.297464 -12.127806 16.977951 39.257439 3041.746094
45 3041.570068 -30.715107 11.297464 -10.492546 14.975651 41.507099 3041.746094
46 3041.570068 -30.715107 11.297464 -9.126269 13.438203 44.187496 3041.746094
[L_Toe1_01]
44 -188.216690 -224.732346 -21.137953 94.191711 -7.524626 179.908356 293.899567
45 -188.216690 -224.732346 -21.137953 94.191818 -7.526219 179.908081 293.899567
46 -188.216690 -224.732346 -21.137953 94.191940 -7.527812 179.907822 293.899567
[L_Toe2_01]
44 200.746536 -219.926590 148.838394 -98.193222 -36.571735 -34.803730 332.896027
45 200.746536 -219.926590 148.838394 -98.193222 -36.571735 -34.803730 332.896027
46 200.746536 -219.926590 148.838394 -98.193222 -36.571735 -34.803730 332.896027
[L_Toe3_01]
44 188.832520 -219.859131 -191.078659 -96.679802 25.038572 -61.562389 347.140900
45 188.832520 -219.859131 -191.078659 -96.679802 25.038572 -61.562389 347.140900
46 188.832520 -219.859131 -191.078659 -96.679802 25.038572 -61.562389 347.140900
[planeAlignerLeft]
44 0.812531 -811.448792 -0.314951 0.000000 -90.000000 -90.001900 811.449280
45 0.812531 -811.448792 -0.314951 0.000000 -90.000000 -90.001900 811.449280
46 0.812531 -811.448792 -0.314951 0.000000 -90.000000 -90.001900 811.449280
[L_Toe1_02]
44 413.761139 0.000477 0.000000 0.001661 0.066323 0.001661 413.761139
45 413.761139 0.000477 0.000000 0.001661 0.066200 0.001661 413.761139
46 413.761139 0.000477 0.000000 0.001661 0.066076 0.001661 413.761139
[L_Toe1_03]
44 464.317322 0.000358 -0.000089 0.001673 -0.448396 -0.003292 464.317322
45 464.317322 0.000358 -0.000089 0.001673 -0.448396 -0.003292 464.317322
46 464.317322 0.000358 -0.000089 0.001673 -0.448396 -0.003292 464.317322
[L_Toe2_02]
44 342.235809 -0.000477 0.000238 0.004684 -81.219460 0.004684 342.235809
45 342.235809 -0.000477 0.000238 0.004684 -81.219955 0.004684 342.235809
46 342.235809 -0.000477 0.000238 0.004684 -81.220428 0.004684 342.235809
[L_Toe2_03]
44 420.210846 -0.000715 0.000000 179.993240 43.061134 -179.999130 420.210846
45 420.210846 -0.000715 0.000000 179.993240 43.061138 -179.999130 420.210846
46 420.210846 -0.000715 0.000000 179.993240 43.061138 -179.999130 420.210846
[L_Toe3_02]
44 329.270111 0.000954 0.000000 0.004676 -84.586296 0.004676 329.270111
45 329.270111 0.000954 0.000000 0.004676 -84.586296 0.004676 329.270111
46 329.270111 0.000954 0.000000 0.004676 -84.586296 0.004676 329.270111
[L_Toe3_03]
44 439.137451 -0.001907 0.000954 179.993500 35.788990 -179.998657 439.137451
45 439.137451 -0.001907 0.000954 179.993500 35.788990 -179.998657 439.137451
46 439.137451 -0.001907 0.000954 179.993500 35.788990 -179.998657 439.137451
[planeLockWeightLeft]
44 -0.000954 0.000238 -0.000305 -0.011826 -0.004376 0.005620 0.001029
45 -0.000954 0.000238 -0.000305 -0.011826 -0.004376 0.005620 0.001029
46 -0.000954 0.000238 -0.000305 -0.011826 -0.004376 0.005620 0.001029
[R_Leg01]
44 761.455627 -0.001907 -0.000358 116.127739 -14.066454 80.548073 761.455688
45 761.455627 -0.001907 -0.000358 115.279808 -10.494931 78.916740 761.455688
46 761.455627 -0.001907 -0.000358 115.024445 -6.188935 77.097816 761.455688
[R_Leg02]
44 1441.140625 0.000000 -0.000238 -0.833718 -0.018618 -105.236313 1441.140625
45 1441.140625 0.000000 -0.000238 -0.666141 0.019326 -101.346008 1441.140625
46 1441.140625 0.000000 -0.000238 -0.479460 0.054607 -96.471687 1441.140625
[R_Leg03]
44 1686.963989 0.000954 0.001431 0.061738 -0.032110 127.618469 1686.963989
45 1686.963989 0.000954 0.001431 0.056973 -0.028408 126.156761 1686.963989
46 1686.963989 0.000954 0.001431 0.052115 -0.024829 124.694801 1686.963989
[R_Foot]
44 3041.560059 -30.531288 -11.204481 -8.841639 -10.407212 51.805763 3041.734131
45 3041.560059 -30.531288 -11.204481 -9.854792 -12.680666 50.859131 3041.734131
46 3041.560059 -30.531288 -11.204481 -10.818222 -14.811861 49.612068 3041.734131
[planeAlignerRight]
44 -0.635147 -812.270569 -0.364304 0.000000 -89.960434 -90.005180 812.270874
45 -0.635147 -812.270569 -0.364304 0.000000 -89.960434 -90.005180 812.270874
46 -0.635147 -812.270569 -0.364304 0.000000 -89.960434 -90.005180 812.270874
[R_Toe1_01]
44 -188.383347 -224.864899 21.052242 77.501534 2.585932 -171.440155 294.101532
45 -188.383347 -224.864899 21.052242 77.501541 2.586013 -171.440262 294.101532
46 -188.383347 -224.864899 21.052242 77.501534 2.586095 -171.440353 294.101532
[R_Toe2_01]
44 200.637817 -220.002121 -148.787384 -87.001137 41.733498 -47.412384 332.857574
45 200.637817 -220.002121 -148.787384 -87.001122 41.733891 -47.412228 332.857574
46 200.637817 -220.002121 -148.787384 -87.001106 41.734291 -47.412071 332.857574
[R_Toe3_01]
44 188.606735 -220.092957 191.126343 -74.774231 -14.746103 -63.949142 347.192566
45 188.606735 -220.092957 191.126343 -74.774231 -14.746103 -63.949142 347.192566
46 188.606735 -220.092957 191.126343 -74.774223 -14.746105 -63.949135 347.192566
[planeLockWeightRight]
44 -0.000477 0.000000 0.000000 -0.011823 -0.004379 -0.000027 0.000477
45 -0.000477 0.000000 0.000000 -0.011823 -0.004379 -0.000027 0.000477
46 -0.000477 0.000000 0.000000 -0.011823 -0.004379 -0.000027 0.000477
[R_Toe1_02]
44 413.762085 0.000477 -0.000119 0.001417 -21.783670 0.001417 413.762085
45 413.762085 0.000477 -0.000119 0.001417 -21.782640 0.001417 413.762085
46 413.762085 0.000477 -0.000119 0.001417 -21.781605 0.001417 413.762085
[R_Toe1_03]
44 464.317810 0.000000 0.001088 0.000899 28.912045 -0.003161 464.317810
45 464.317810 0.000000 0.001088 0.000899 28.912226 -0.003161 464.317810
46 464.317810 0.000000 0.001088 0.000899 28.912407 -0.003161 464.317810
[R_Toe2_02]
44 342.234741 -0.000954 0.000238 -0.002334 -78.694374 -0.002334 342.234741
45 342.234741 -0.000954 0.000238 -0.002334 -78.691521 -0.002334 342.234741
46 342.234741 -0.000954 0.000238 -0.002334 -78.688713 -0.002334 342.234741
[R_Toe2_03]
44 420.210846 0.000715 -0.000268 -179.994690 71.300629 -179.998230 420.210846
45 420.210846 0.000715 -0.000268 -179.994690 71.300629 -179.998230 420.210846
46 420.210846 0.000715 -0.000268 -179.994690 71.300629 -179.998230 420.210846
[R_Toe3_02]
44 329.270355 -0.000477 -0.000954 0.001175 -84.061325 0.001175 329.270355
45 329.270355 -0.000477 -0.000954 0.001175 -84.061913 0.001175 329.270355
46 329.270355 -0.000477 -0.000954 0.001175 -84.062607 0.001175 329.270355
[R_Toe3_03]
44 439.137939 0.000238 0.001431 -179.995346 57.500057 -179.988052 439.137939
45 439.137939 0.000238 0.001431 -179.995346 57.499901 -179.988052 439.137939
46 439.137939 0.000238 0.001431 -179.995346 57.499748 -179.988052 439.137939
[Rear_Leg02]
44 1162.777710 -0.029802 0.005960 -0.388348 2.788206 -98.732635 1162.777710
45 1162.777710 -0.029802 0.005960 -0.146687 0.913547 -103.477600 1162.777710
46 1162.777710 -0.029802 0.005960 0.320566 -1.017453 -110.662628 1162.777710
[Rear_Leg03]
44 607.192505 -0.013351 -0.073195 0.009288 -0.003814 63.680267 607.192505
45 607.192505 -0.013351 -0.073195 0.010637 -0.004796 64.889183 607.192505
46 607.192505 -0.013351 -0.073195 0.010591 -0.004897 65.988449 607.192505
[Rear_Leg04]
44 995.874512 -0.020504 -0.011921 -0.040378 -0.015576 57.083115 995.874573
45 995.874512 -0.020504 -0.011921 -0.040669 -0.014750 59.403126 995.874573
46 995.874512 -0.020504 -0.011921 -0.043483 -0.018199 61.642002 995.874573
[Rear_Foot]
44 3096.176270 -0.067472 -0.041425 155.874588 84.251640 -14.471832 3096.176270
45 3096.176270 -0.067472 -0.041425 174.328003 82.402367 2.345470 3096.176270
46 3096.176270 -0.067472 -0.041425 -174.338318 80.075897 12.527271 3096.176270
[planeAlignerCenter]
44 0.350077 0.966311 -838.790894 0.000009 0.000003 -179.999985 838.791565
45 0.350077 0.966311 -838.790894 0.000009 0.000003 -179.999985 838.791565
46 0.350077 0.966311 -838.790894 0.000009 0.000003 -179.999985 838.791565
[Rear_Toe1_01]
44 0.653352 83.966492 -371.173737 -29.406038 24.685493 88.738396 380.553192
45 0.653352 83.966492 -371.173737 -26.384457 26.274855 89.211655 380.553192
46 0.653352 83.966492 -371.173737 -19.851704 28.513388 89.110107 380.553192
[Rear_Toe2_01]
44 178.200760 -294.826019 -362.060547 -8.164474 14.529943 -64.826996 499.765686
45 178.200760 -294.826019 -362.060547 -8.193286 19.654562 -65.721947 499.765686
46 178.200760 -294.826019 -362.060547 -8.145140 23.517096 -66.291069 499.765686
[Rear_Toe3_01]
44 -153.359680 -308.780914 -362.060852 3.941916 18.695581 -105.139053 499.952881
45 -153.359680 -308.780914 -362.060852 4.025398 21.235483 -106.607132 499.952881
46 -153.359680 -308.780914 -362.060852 4.039315 23.776560 -108.098404 499.952881
[planeLockWeightCenter]
44 -0.000062 0.000238 0.000000 -0.011814 -0.004373 -0.000015 0.000246
45 -0.000062 0.000238 0.000000 -0.011814 -0.004373 -0.000015 0.000246
46 -0.000062 0.000238 0.000000 -0.011814 -0.004373 -0.000015 0.000246
[Rear_Toe1_02]
44 379.707825 0.194073 0.000477 -0.004669 -31.394753 -0.004669 379.707855
45 379.707825 0.194073 0.000477 -0.002655 -32.124340 -0.002655 379.707855
46 379.707825 0.194073 0.000477 -0.000655 -32.853912 -0.000655 379.707855
[Rear_Toe1_03]
44 500.129700 0.165701 0.000119 -179.992416 78.682327 -179.995941 500.129761
45 500.129700 0.165701 0.000119 -179.986511 84.390236 -179.990005 500.129761
46 500.129700 0.165701 0.000119 -0.049352 88.711082 -0.052849 500.129761
[Rear_Toe2_02]
44 340.494507 0.000238 -0.000954 0.001327 -34.348373 0.001327 340.494507
45 340.494507 0.000238 -0.000954 0.001263 -46.550591 0.001263 340.494507
46 340.494507 0.000238 -0.000954 0.001230 -55.228195 0.001230 340.494507
[Rear_Toe2_03]
44 433.103577 0.000000 0.000238 -0.003159 28.560680 0.000909 433.103546
45 433.103577 0.000000 0.000238 -0.003300 40.604126 0.000549 433.103546
46 433.103577 0.000000 0.000238 0.003453 50.263279 0.003453 433.103546
[Rear_Toe3_02]
44 340.494141 -0.000358 -0.000477 -0.002483 -48.707748 -0.002483 340.494171
45 340.494141 -0.000358 -0.000477 -0.002443 -53.970478 -0.002443 340.494171
46 340.494141 -0.000358 -0.000477 -0.002414 -58.399635 -0.002414 340.494171
[Rear_Toe3_03]
44 433.103577 0.001431 -0.000238 0.000466 43.002323 -0.003352 433.103546
45 433.103577 0.001431 -0.000238 0.000233 48.825424 -0.003502 433.103546
46 433.103577 0.001431 -0.000238 -0.000028 54.118534 -0.003704 433.103546
[Back_Bone]
44 1312.175781 -701.934692 0.000954 -3.547890 -5.223938 -82.534538 1488.125488
45 1312.175781 -701.934692 0.000954 -5.601439 -2.746218 -82.123695 1488.125488
46 1312.175781 -701.934692 0.000954 -6.894538 -0.768426 -82.933044 1488.125488
[Head]
44 1406.159424 809.709290 0.001431 4.354790 0.985691 26.460211 1622.625488
45 1406.159424 809.709290 0.001431 4.407644 1.124842 24.249910 1622.625488
46 1406.159424 809.709290 0.001431 3.729044 0.719208 21.971642 1622.625488
[Motor_Bone]
44 1158.364380 -417.834747 0.000477 -1.809671 1.686722 -115.147835 1231.419434
45 1158.364380 -417.834747 0.000477 -1.853794 2.878095 -113.780869 1231.419434
46 1158.364380 -417.834747 0.000477 -1.575965 2.442136 -111.260101 1231.419434
[Ping_Mechanism]
44 1246.647705 -446.180450 28.062277 0.000103 -0.000053 82.120995 1324.384766
45 1233.977295 -442.180573 31.304543 0.000103 -0.000053 82.120995 1311.184082
46 1221.306763 -438.180664 34.546616 0.000103 -0.000053 82.120995 1297.993164
[BN_LookIK]
44 193.241119 1380.371704 -0.002861 0.000000 89.965736 -31.038179 1393.832153
45 193.241119 1380.371704 -0.002861 0.000000 89.965736 -31.038179 1393.832153
46 193.241119 1380.371704 -0.002861 0.000000 89.965736 -31.038179 1393.832153
[bottomMouth]
44 -435.092926 615.759399 -0.000954 -0.000022 0.000016 73.527184 753.966492
45 -435.092926 615.759399 -0.000954 -0.000022 0.000016 73.527184 753.966492
46 -435.092926 615.759399 -0.000954 -0.000022 0.000016 73.527184 753.966492
[L_Mouth01]
44 554.440979 7.658243 838.222046 150.204178 23.759130 109.605339 1005.027161
45 554.440979 7.658243 838.222046 150.204178 23.759130 109.605339 1005.027161
46 554.440979 7.658243 838.222046 150.204178 23.759130 109.605339 1005.027161
[L_mouthFront]
44 551.629089 934.514771 339.150421 0.000081 2.804060 79.119301 1136.941284
45 551.629089 934.514771 339.150421 0.000081 2.804060 79.119301 1136.941284
46 551.629089 934.514771 339.150421 0.000081 2.804060 79.119301 1136.941284
[mouthGun]
44 55.332661 1627.420898 0.000000 0.000023 0.000009 -11.038128 1628.361328
45 55.332661 1627.420898 0.000000 0.000023 0.000009 -11.038128 1628.361328
46 55.332661 1627.420898 0.000000 0.000023 0.000009 -11.038128 1628.361328
[R_Mouth01]
44 554.442383 7.659197 -838.223938 29.795891 -23.759109 109.605331 1005.029541
45 554.442383 7.659197 -838.223938 29.795891 -23.759109 109.605331 1005.029541
46 554.442383 7.659197 -838.223938 29.795891 -23.759109 109.605331 1005.029541
[R_mouthFront]
44 551.629089 934.514282 -339.151367 0.000029 -2.803930 79.119133 1136.941162
45 551.629089 934.514282 -339.151367 0.000029 -2.803930 79.119133 1136.941162
46 551.629089 934.514282 -339.151367 0.000029 -2.803930 79.119133 1136.941162
[TopMouth]
44 461.269867 -56.106091 -0.008583 -0.000059 -0.000268 92.025169 464.669525
45 461.269867 -56.106091 -0.008583 -0.000059 -0.000268 92.025169 464.669525
46 461.269867 -56.106091 -0.008583 -0.000059 -0.000268 92.025169 464.669525
[weapon_bone]
44 -987.239868 1448.372803 0.001431 0.000000 89.965736 -31.038221 1752.833740
45 -987.239868 1448.372803 0.001431 0.000000 89.965736 -31.038221 1752.833740
46 -987.239868 1448.372803 0.001431 0.000000 89.965736 -31.038221 1752.833740
